<svg xmlns="http://www.w3.org/2000/svg" viewBox="0 0 320.72 142.08"><defs><style>.cls-1{fill:none;}</style></defs><title>Asset 10</title><g id="Layer_2" data-name="Layer 2"><g id="Layer_1-2" data-name="Layer 1"><path class="cls-1" d="M1.3,38.44l-.9-.9A1.87,1.87,0,0,1,.1,35.8L6.76,18A1.76,1.76,0,0,1,9,16.9a1.8,1.8,0,0,1,1.08,2.34L6.64,28.36l10-16a1.81,1.81,0,0,1,2.34-.66,1.86,1.86,0,0,1,.84,2.34,20.06,20.06,0,0,0-2,7.26,3.56,3.56,0,0,0,3.78,3.3c4,0,13-2,18.54-3.24a1.79,1.79,0,0,1,.84,3.48C40.41,25,27,28.24,21.51,28.24c-3.6,0-7-2.58-7.07-6.06L4.18,38.26a1.74,1.74,0,0,1-1.44.84A1.83,1.83,0,0,1,1.3,38.44Z"/><path class="cls-1" d="M34,35.8c0-3.54,4.37-11.82,7.49-18.06A1.79,1.79,0,0,1,44,17a1.72,1.72,0,0,1,.72,2.4A123.35,123.35,0,0,0,38,33.76,73.8,73.8,0,0,0,52.65,17.62a1.82,1.82,0,0,1,2.4-.6,1.76,1.76,0,0,1,.78,2.28l-6.9,15.6c5.82,0,19.62-7.56,29.1-13.32A1.83,1.83,0,0,1,80,24.7C68,31.9,55.05,38.62,48.57,38.62a3.29,3.29,0,0,1-3.24-3.36A5.49,5.49,0,0,1,45.87,33L48,28.72a43.38,43.38,0,0,1-6,6.36c-2.4,2.1-4.14,3.54-5.58,3.54A2.53,2.53,0,0,1,34,35.8Z"/><path class="cls-1" d="M73.17,32.68,77,24.1a11.11,11.11,0,0,0,1-4.32c0-2.52-1.8-4.2-4.38-4.86a1.8,1.8,0,0,1-1.38-1.74,1.74,1.74,0,0,1,1.38-1.74c2.82-.66,6.54-1.44,9.84-1.92l3.78-8.46a1.74,1.74,0,0,1,2.34-.9,1.74,1.74,0,0,1,.9,2.34L87.51,9.1c3.12-.3,6.54-.48,10.38-.48a1.8,1.8,0,0,1,0,3.6,102,102,0,0,0-12.06.66L76.41,34.12c-.18.48-.24.84.12.84,4.2,0,16.38-5.4,29.52-13.38A1.83,1.83,0,0,1,108,24.7c-14,8.46-26.7,13.92-31.74,13.92C73.11,38.62,71.92,35.56,73.17,32.68ZM81.81,13.3a20.14,20.14,0,0,0-3.48.54,4.45,4.45,0,0,1,2,2.94Z"/><path class="cls-1" d="M97.77,35.86c0-4.92,11-19.14,16-19.14a2.53,2.53,0,0,1,2.52,2.7c0,1.74-1.26,4.56-3.24,7.68-.54,2.1-1.56,6.18-1.08,7.92,3.18,0,9.66-3.24,17-7.5a1.8,1.8,0,0,1,2.46.54,1.83,1.83,0,0,1-.54,2.52c-7.62,4.44-14.64,8-18.72,8-2.46,0-3.72-1.86-3.72-4.08a11.68,11.68,0,0,1,.36-2.34,20.79,20.79,0,0,1-2,2.52c-2.4,2.34-4.74,3.9-6.48,3.9A2.57,2.57,0,0,1,97.77,35.86Zm14.64-14.94c-3.48,2-9.42,9.18-10.8,13.56C105.81,32.14,111,25.06,112.41,20.92Z"/><path class="cls-1" d="M146.25,51.58,158.85,18a1.76,1.76,0,0,1,2.28-1.08,1.8,1.8,0,0,1,1.08,2.34l-3.6,9.18c5.7-8.94,8.34-12.3,11.1-12.3a3.27,3.27,0,0,1,2.94,3.42c0,4-2.46,9.36-2.46,11.64,0,.42.06.66.48.66,3.18,0,13.8-3.18,25.2-10.26a1.83,1.83,0,1,1,1.92,3.12c-11.52,7-22.74,10.74-27.24,10.74-2.7,0-4-2-4-4.26,0-2.94,2.28-8.34,2.46-11a71.76,71.76,0,0,0-7.86,10.38c-5.7,9.12-8.64,14.64-10.56,19.68l-1,2.64a1.79,1.79,0,0,1-3.36-1.26Z"/><path class="cls-1" d="M187.59,35.86c0-4.92,11-19.14,16-19.14a2.53,2.53,0,0,1,2.52,2.7c0,1.74-1.26,4.56-3.24,7.68-.54,2.1-1.56,6.18-1.08,7.92,4.56,0,15.78-6.66,26.82-13.38a1.76,1.76,0,0,1,2.46.54,1.83,1.83,0,0,1-.54,2.52c-11,6.66-22.68,13.92-28.5,13.92-2.46,0-3.72-1.86-3.72-4.08a11.68,11.68,0,0,1,.36-2.34,20.79,20.79,0,0,1-2,2.52c-2.4,2.34-4.74,3.9-6.48,3.9A2.57,2.57,0,0,1,187.59,35.86Zm14.64-14.94c-3.48,2-9.42,9.18-10.8,13.56C195.63,32.14,200.85,25.06,202.23,20.92Z"/><path class="cls-1" d="M223.11,35.8c0-3.54,4.38-11.82,7.5-18.06a1.79,1.79,0,0,1,2.46-.72,1.72,1.72,0,0,1,.72,2.4,121.66,121.66,0,0,0-6.66,14.34,73.8,73.8,0,0,0,14.64-16.14,1.82,1.82,0,0,1,2.4-.6A1.76,1.76,0,0,1,245,19.3l-6.9,15.6c5.82,0,19.62-7.56,29.1-13.32a1.83,1.83,0,1,1,1.92,3.12c-11.94,7.2-24.9,13.92-31.38,13.92a3.29,3.29,0,0,1-3.24-3.36A5.49,5.49,0,0,1,235,33l2.16-4.26a43.38,43.38,0,0,1-6,6.36c-2.4,2.1-4.14,3.54-5.58,3.54A2.53,2.53,0,0,1,223.11,35.8Z"/><path class="cls-1" d="M262.23,36.16a6.19,6.19,0,0,1,.48-4.92l5.76-13c2.94-6.72,5.34-10.8,7.32-13.38s5.82-4.8,8.7-4.8c.36,0,2.64.06,2.64,2.28,0,1.68-3.06,6.18-5.28,9a120.09,120.09,0,0,1-12.18,13L266,32.68c-.84,2-.48,2.34.36,2.34,2.58,0,14.7-4.8,28.68-13.44a1.83,1.83,0,0,1,1.92,3.12,157.79,157.79,0,0,1-23.46,11.94c-2.46,1-5.22,2-7.5,2A4,4,0,0,1,262.23,36.16ZM279.15,9.28A38.87,38.87,0,0,0,283,3.88,12.35,12.35,0,0,0,278.31,7a62.48,62.48,0,0,0-5.52,9.78C275.79,13.42,277.53,11.32,279.15,9.28Z"/><path class="cls-1" d="M286.71,35.86c0-4.92,11-19.14,16-19.14a2.53,2.53,0,0,1,2.52,2.7c0,1.74-1.26,4.56-3.24,7.68-.54,2.1-1.56,6.18-1.08,7.92,3.18,0,9.66-3.24,17-7.5a1.8,1.8,0,0,1,2.46.54,1.83,1.83,0,0,1-.54,2.52c-7.62,4.44-14.64,8-18.72,8-2.46,0-3.72-1.86-3.72-4.08a11.68,11.68,0,0,1,.36-2.34,20.79,20.79,0,0,1-2,2.52c-2.4,2.34-4.74,3.9-6.48,3.9A2.57,2.57,0,0,1,286.71,35.86Zm14.64-14.94c-3.48,2-9.42,9.18-10.8,13.56C294.75,32.14,300,25.06,301.35,20.92Z"/><path class="cls-1" d="M75.18,105.28c0-6.54,6.48-16.5,12.66-16.5,2.88,0,4,2.94,3.36,5.28a1.8,1.8,0,0,1-2.1,1.38,1.68,1.68,0,0,1-1.38-2,3.17,3.17,0,0,0,0-1.08c-3.24,0-8.94,7.68-8.94,12.78,0,1,.3,1.86,1.2,1.86,4.2,0,17.64-5.22,30.9-13.44a1.83,1.83,0,1,1,1.92,3.12C99,105,85.62,110.62,80,110.62,77,110.62,75.18,107.92,75.18,105.28Z"/><path class="cls-1" d="M106.26,105.28c0-7.2,7.08-16.5,12.36-16.5a2.79,2.79,0,0,1,2.94,2.88c0,3.48-2.7,7.68-6.42,11a1.8,1.8,0,0,1-2.52-.18,1.85,1.85,0,0,1,.36-2.58,17.33,17.33,0,0,0,4.86-7.38c-3,.9-8,7.86-8,12.6,0,1.44.54,1.86,1.86,1.86,4.74,0,17.46-5.34,30.66-13.44a1.83,1.83,0,1,1,1.92,3.12c-13.74,8.34-26.7,13.92-32.58,13.92C108.12,110.62,106.26,108.28,106.26,105.28Z"/><path class="cls-1" d="M137.46,108.16a6.19,6.19,0,0,1,.48-4.92l5.76-13c2.94-6.72,5.34-10.8,7.32-13.38s5.82-4.8,8.7-4.8c.36,0,2.64.06,2.64,2.28,0,1.68-3.06,6.18-5.28,9a120.09,120.09,0,0,1-12.18,13l-3.72,8.4c-.84,2-.48,2.34.36,2.34,2.58,0,14.7-4.8,28.68-13.44a1.83,1.83,0,1,1,1.92,3.12,157.79,157.79,0,0,1-23.46,11.94c-2.46,1-5.22,2-7.5,2A4,4,0,0,1,137.46,108.16Zm16.92-26.88a38.87,38.87,0,0,0,3.84-5.4A12.35,12.35,0,0,0,153.54,79,62.48,62.48,0,0,0,148,88.78C151,85.42,152.76,83.32,154.38,81.28Z"/><path class="cls-1" d="M165.18,110.44l-.9-.9a2,2,0,0,1-.12-2.16l7.74-17.52a1.77,1.77,0,1,1,3.24,1.44L170,102.22c2.52-3.6,5.1-6.9,6.36-8.34,5-5.82,7-6.24,7.86-6.24a2,2,0,0,1,2,2.22,7.28,7.28,0,0,1-.42,2l-3.9,9.84c2.4-3.48,4.5-6.42,5.88-8,4.2-4.74,6.36-6.06,7.86-6.06a2.07,2.07,0,0,1,2,2.1,7.7,7.7,0,0,1-.42,2l-4.92,14.16c-.3,1-.24,1.08.3,1.08,4.74,0,22-9.6,28.08-13.44a1.83,1.83,0,0,1,1.92,3.12c-9.78,5.94-24.48,13.92-30.24,13.92a3.6,3.6,0,0,1-3.84-3.78,7.94,7.94,0,0,1,.66-2.82l3.84-10.92a83.05,83.05,0,0,0-9.18,11.34l-3.18,4.62c-.66,1-1.32,1.74-2.1,1.74a1.83,1.83,0,0,1-1.44-.66l-.9-.9a1.91,1.91,0,0,1-.12-2.16l5.22-13.56c-1.38,1.44-3.78,4.14-5,5.76l-7.62,10.08c-.9,1.2-1.38,1.74-2.1,1.74A1.83,1.83,0,0,1,165.18,110.44Z"/><path class="cls-1" d="M212.46,107.86c0-4.92,11-19.14,16-19.14a2.53,2.53,0,0,1,2.52,2.7c0,1.74-1.26,4.56-3.24,7.68-.54,2.1-1.56,6.18-1.08,7.92,3.18,0,9.66-3.24,17-7.5a1.8,1.8,0,0,1,2.46.54,1.83,1.83,0,0,1-.54,2.52c-7.62,4.44-14.64,8-18.72,8-2.46,0-3.72-1.86-3.72-4.08a11.68,11.68,0,0,1,.36-2.34,20.79,20.79,0,0,1-2,2.52c-2.4,2.34-4.74,3.9-6.48,3.9A2.57,2.57,0,0,1,212.46,107.86ZM227.1,92.92c-3.48,2-9.42,9.18-10.8,13.56C220.5,104.14,225.72,97.06,227.1,92.92Z"/><text></text><path class="cls-1" d="M44.43,14.1A60.5,60.5,0,0,1,57,13.16c1.93.05,1.93-2.95,0-3a64.12,64.12,0,0,0-13.4,1.05c-1.89.34-1.09,3.24.8,2.89Z"/></g></g></svg>