<svg xmlns="http://www.w3.org/2000/svg" viewBox="0 0 147.85 188"><defs><style>.cls-1{fill:none;}</style></defs><title>Asset 12</title><g id="Layer_2" data-name="Layer 2"><g id="Layer_1-2" data-name="Layer 1"><path class="cls-1" d="M122.66,36.64c1.49.2,4.73-.16,6.62-.06,2.15.12,4.77.41,7,.74s4.84,1,3.26,3.61c-1.12,1.83-9.21.09-11.21.08-5.57,0-12.72-.43-18,1.48-6.13,2.21-8.88,4.31-10.52,10.65-1.15,4.45-1.49,9.2,4.08,9.43,6,.25,13.08-.42,18.28-3.51a42.88,42.88,0,0,0,5.4-3.38c1-.84,3.06-4,4.81-3.76,7.11.94-7.47,10.08-8.57,10.81-3.56,2.36-8,5.31-11,8.39-3.37,3.43-5.34,6.61.25,8.31,6.21,1.89,9.36-1.69,14.88-4,3.82-1.58,14.27-4.86,17.28-.5,3.56,5.17-4.64,9.2-8.28,10.06-5.13,1.2-10.56-.11-15.73.77a10.34,10.34,0,0,0-8.36,8.86c-.77,7.11,6.89,8.67,11.54,11.34,3.21,1.84,2.48,2.27,6.41,1.66,2.65-.41,4.08-.73,6.86.06,3.89,1.11,10.4,4.21,10.2,9-.23,5.9-6.85,5.54-10.72,3.58-2.82-1.42-9.93-8.88-11.6-3-1,3.59,5.76,7.23,7.79,9.89s5.71,11.8-.83,11.82c-4.2,0-8.83-8.81-10.49-11.9-2.57-4.77-5.55-7.65-11.57-7.26-15.12,1-5.41,18.64-2.56,27.08,1.45,4.3,1.65,9.65-1.08,13.48-2.45,3.44-6.56,5.35-9.45,1.29-6-8.5,3.73-20.21-2.44-28.43-1.83-2.44-5.16-7.06-8.7-5.87-5.12,1.73-5,11.15-5.18,15.36-.16,4.95.44,11.75-1.47,16.44-.83,2-2.45,4.74-4.64,2-1.31-1.66-.64-6.46-.56-8.36.26-6.34,2.66-13,1.68-19.34-.66-4.27-4.76-9.18-8.84-4.9-1.43,1.48-1.55,3.59-2.65,5.28-1.29,2-3.94,3.32-3.84,6,.17,4.83,6-1.23,6.47,3.81.5,4.79-7.66,2.12-9.94,4.34-1.54,1.51-2.85,6.59-3.8,8.65-1.12,2.4-2.28,4.77-3.47,7.14-3.64,7.19-8.58,14.6-15.07,19.62-2.43,1.89-8.05,7.26-10.06,3.12-1.49-3.06,4.07-12.55,5.37-15.58a60.81,60.81,0,0,1,9-14.82c1.53-1.87,3.48-3.65,4.88-5.59,2.43-3.38,1-3.2-2.6-2.89-10.82.93-21.55,1.27-32.42,2.31-2.38.22-14.36.85-6.3-2.81,4.7-2.13,12-1.6,17.13-2,6.29-.54,12.58-.91,18.88-1.21a69.93,69.93,0,0,0,7.67-.57c4.12-.65,4.63-1.91,7.39-5.21,3.5-4.19,4.47-7.33,4.29-13-.26-8.05-5.12-4.91-10.7-4.38-2.52.24-4.64-.6-7.11.11-1.93.55-3.88,2-5.7,2.89-4.17,2-13.91,5.59-17.94,1.39-3.6-3.76,4.39-7.46,7.14-8.55,5.07-2,9.59-.1,14.7-1.08,3.85-.74,10.16-5.06,11.54-8.93,1-2.75.36-2.46-1.48-4.49-2.14-2.34-2.18-2.24-5.5-2-5.66.44-11.15,1.78-16.67-.13-3.05-1.06-11.25-4-7.19-7.9,2.93-2.79,11.25-2.82,14.87-2.54,3.36.27,6.79,2.52,9.92,2.68s6.15-2.36,8-4.81c3.74-5,1-8.5-3.24-11.94S40.23,69.06,36.83,64.9c-2.89-3.51-7.21-9.71-2.89-13.72,4.63-4.29,9.88,1.16,12.27,5.11,2.79,4.62,3.94,10.4,6.86,14.85,3,4.66,8.84,5.26,11-.36,1.92-5,.78-9.49-2.18-13.67-2.53-3.58-7.83-8.14-8.63-12.53-.71-3.87,1.49-5.42,4.85-4.9.9.14,1.65,1.54,2.48,1.66,1.59.23,1.52-.32,2.83-.39,5.71-.33,11.47-.69,17.24-1.07,5.3-.34,10.59-.21,15.85-.91,6.12-.81,6.29-5.07,9.44-10,5.59-8.79,11.19-18.31,20.15-24.11C130,2.33,137.44-2,142,1.09c5.25,3.62-.46,9.92-3.19,13.26-2.89,3.53-5.7,7-8.51,10.59-1.09,1.4-11.09,11-10.93,11.74C119.35,36.68,121.91,36.68,122.66,36.64ZM69.43,68c0,4.44-.88,9.47-5.57,11.3-3.3,1.29-3-.11-4.19,3-.92,2.43-.7,4.48-2.2,6.86a44.4,44.4,0,0,1-4.2,4.89c-2.77,3.25-1.25,3,1,5.77s2.58,4.53,1.12,7.61c-1,2.09-4.08,4-4.48,6.22,9.23-.76,10.44.86,13.09,9.33,3.37-1.55,5.22-3.4,9.21-1.8,3.25,1.31,3.77,4.06,6.08,5.92,3.29-.91,3.2-5.66,7.72-5.34,3.62.25,6.45,3.62,8.92,5.73,1-1.17.14-3.54.4-4.94a8.75,8.75,0,0,1,2.36-4.42c3.4-3.66,8.46-4.44,13.09-3.56,2,.39,4.37,1.83,6.33,1.84,2.72,0,1.12.46,2.82-1.64,4-4.86-1.11-5.67-5.34-7.86-4-2.06-7-4.45-7.42-9.15a16.93,16.93,0,0,1,1.7-8.55c.65-1.32,3.63-3.82,2.71-5.21-.36-.56-3.54-.57-4.3-.82-1.9-.65-3.31-1.15-3.93-3.29-1.57-5.41,4.54-9.42,6.93-13.21-6.46,0-14.62,4.26-16.42-4.59-.78-3.85.29-7.95,1.42-11.63.42-1.38,3.41-6.17,2.64-7.43-1.3-2.12-17.57,0-20.27.1-3.62.12-9.73-.47-13.09.64-3.68,1.22-.56,4.26.55,7.4,2.19,6.13,3.74,12.9,10.94,15,2.94.88,5.38.39,7-2.38,1.12-2,1.65-7.89,3.59-9,4.87-2.86,1.76,11.71.06,14.08-2.09,2.93-5.85,3.73-9.25,3.35C75.41,71.92,71.87,67.35,69.43,68ZM106,38.57c3.27.72,7.35-2.89,9.75-4.58A55.54,55.54,0,0,0,127,23.17c2-2.5,3.82-5.05,5.89-7.53,1.65-2,7.42-7.34,7.13-9.52-1-7.48-16.53,5.85-18.74,8.24A73.3,73.3,0,0,0,112.37,26C111,28.18,104.83,35.92,106,38.57ZM29.87,180.72c4.46-.41,9.79-8.81,12-11.95,1.75-2.46,11.95-19.22,9.77-20.82-2.68,5.15-8.79,8.87-12.39,13.35a46.07,46.07,0,0,0-5.82,9.35C32.56,172.51,29.27,178.52,29.87,180.72ZM46.55,68.09c.23-2.85-6.12-17.74-9.68-14.26S43.64,66.36,46.55,68.09Zm94.86,9.73c-1.54-2-14.16.81-15.3,3.35-.44,1,9.09.78,10.36.5C138.87,81.14,140.47,80.22,141.41,77.82ZM101.9,144.89c-1.74,1.58-3.17,12.71-.87,13.83C105,160.66,104.85,147.11,101.9,144.89Zm31.39-33.06c-.37,2.22,8.27,7,9.84,5.39C145.81,114.4,134.78,111.81,133.29,111.83Zm-95.15-17c-.87-2-11.74-2-11.79-.27C26.27,97.34,36.57,96.57,38.14,94.84Zm-7.86,25.68c-2.17-1.22-5.22-.28-7.22,1C24.29,122.76,29.13,120.92,30.28,120.52Zm100,10.66-.49-.72C129.38,130.76,129.55,131,130.3,131.18Z"/><path class="cls-1" d="M58.14,165.07c-.45-.23-.63-.53-.27-.92a.6.6,0,0,1,.58,0C58.74,164.51,58.51,164.81,58.14,165.07Z"/></g></g></svg>